HIERARCHY
ROOT Hips
{
  OFFSET -213.699 104.721 0.752556
  CHANNELS 6 Xposition Yposition Zposition Zrotation Xrotation Yrotation
  JOINT RightUpLeg
  {
    OFFSET -8.9458 -8.66707 0.101652
    CHANNELS 3 Zrotation Xrotation Yrotation
    JOINT RightLeg
    {
      OFFSET 0 -44.4227 1.3727
      CHANNELS 3 Zrotation Xrotation Yrotation
      JOINT RightFoot
      {
        OFFSET 0.253549 -42.0924 -1.46059
        CHANNELS 3 Zrotation Xrotation Yrotation
        JOINT RightToes
        {
          OFFSET 0.04 -4.41509 8.4991
          CHANNELS 3 Zrotation Xrotation Yrotation
          End Site
          {
            OFFSET -0.08 -0.137448 9.77979
          }
        }
      }
    }
  }
  JOINT Spine
  {
    OFFSET 0 11.8905 0
    CHANNELS 3 Zrotation Xrotation Yrotation
    JOINT Spine1
    {
      OFFSET 0 25.6574 0.127663
      CHANNELS 3 Zrotation Xrotation Yrotation
      JOINT HEad
      {
        OFFSET 0 8.73416 0.011341
        CHANNELS 3 Zrotation Xrotation Yrotation
        End Site
        {
          OFFSET -0.29 12.7742 2.51395
        }
      }
      JOINT LeftShoulder1
      {
        OFFSET 8.99 -0.362252 -0.22
        CHANNELS 3 Zrotation Xrotation Yrotation
        JOINT LeftArm
        {
          OFFSET 10.2827 -0.00337999 0.322123
          CHANNELS 3 Zrotation Xrotation Yrotation
          JOINT LeftForeArm
          {
            OFFSET 26.2597 0.099144 -1.42434
            CHANNELS 3 Zrotation Xrotation Yrotation
            JOINT LeftHand
            {
              OFFSET 22.0902 0.085362 1.02216
              CHANNELS 3 Zrotation Xrotation Yrotation
              End Site
              {
                OFFSET 13.419 -0.6 1.50291
              }
            }
          }
        }
      }
      JOINT RightShoulder
      {
        OFFSET -8.99 -0.362252 -0.22
        CHANNELS 3 Zrotation Xrotation Yrotation
        JOINT RightArm
        {
          OFFSET -10.2827 -0.00338 0.322123
          CHANNELS 3 Zrotation Xrotation Yrotation
          JOINT RightForeArm
          {
            OFFSET -26.364 0.099144 -1.42434
            CHANNELS 3 Zrotation Xrotation Yrotation
            JOINT RightHand
            {
              OFFSET -22.0324 0.085362 1.02216
              CHANNELS 3 Zrotation Xrotation Yrotation
              End Site
              {
                OFFSET -13.3284 -0.6 1.50291
              }
            }
          }
        }
      }
    }
  }
  JOINT LeftUpLeg
  {
    OFFSET 8.9458 -8.66707 0.101652
    CHANNELS 3 Zrotation Xrotation Yrotation
    JOINT LeftLeg
    {
      OFFSET 0 -44.4227 1.3727
      CHANNELS 3 Zrotation Xrotation Yrotation
      JOINT LeftFoot
      {
        OFFSET -0.253549 -42.0924 -1.46059
        CHANNELS 3 Zrotation Xrotation Yrotation
        JOINT LeftToes
        {
          OFFSET -0.04 -4.41509 8.4991
          CHANNELS 3 Zrotation Xrotation Yrotation
          End Site
          {
            OFFSET 0.08 -0.047448 9.77979
          }
        }
      }
    }
  }
}
MOTION
Frames:	10
Frame Time:	0.0333333
-111.683 111.656 106.52 -0.768007 1.11663 86.9233 2.41414 -0.601026 1.09191 -1.6574 8.51585 -11.6583 -0.403433 -19.3888 -0.292061 0.0462048 0.000530889 0.662642 -4.35734 -0.0526816 -0.593655 1.58857 7.78084 -0.972851 1.62542 -2.37936 1.73945 -31.5516 -3.39776 12.5251 -79.9674 -39.7275 -40.3607 -175.117 55.2458 176.468 9.58994 8.92567 -7.4447 30.8177 -0.429024 -5.25414 56.0608 -22.5768 25.7878 16.3017 70.4787 -3.36063 -1.97465 9.82397 0.365957 -3.91138 -5.53893 -1.39226 2.31269 14.3865 9.70618 1.26498 -21.9364 0.287235 -1.32715e-009 8.75175e-006 -1.46528e-008 
-111.687 111.656 106.507 -0.8002 1.11058 86.9099 2.41335 -0.655117 1.10033 -1.65157 8.54757 -11.6542 -0.438286 -19.3888 -0.292061 0.0462048 0.000530889 0.662642 -4.36559 -0.0692911 -0.596562 1.59426 7.81233 -0.976514 1.61148 -2.35657 1.69839 -31.5466 -3.38847 12.5017 -80.0291 -39.7963 -40.3938 -175.1 55.1842 176.535 9.65102 8.91363 -7.51339 30.8333 -0.429024 -5.25414 56.0672 -22.6009 25.7135 16.3171 70.5026 -3.38437 -2.02577 9.82407 0.253433 -3.92212 -5.57678 -1.41082 2.32928 14.3902 9.73992 1.2669 -21.9382 0.287239 -1.32715e-009 8.75175e-006 -1.46528e-008 
-111.695 111.656 106.477 -0.871728 1.09962 86.8643 2.40663 -0.771539 1.11367 -1.64646 8.6144 -11.5996 -0.440556 -19.387 -0.292058 0.0462048 0.000530889 0.662642 -4.40128 -0.130858 -0.604694 1.63258 7.91298 -0.990535 1.54087 -2.35537 1.66703 -31.5713 -3.40801 12.5475 -80.2508 -39.9567 -40.5274 -175.061 54.88 176.766 9.79493 8.88429 -7.68489 30.8636 -0.429924 -5.25623 56.1554 -22.6927 25.6773 16.622 70.5291 -3.78354 -2.20455 9.82415 0.0992893 -3.9245 -5.66863 -1.42518 2.32413 14.4135 9.80098 1.28512 -21.9463 0.287255 -1.32715e-009 8.75175e-006 -1.46528e-008 
-111.707 111.656 106.444 -0.969308 1.08569 86.8068 2.39615 -0.90996 1.12737 -1.64964 8.66893 -11.5089 -0.398388 -19.3758 -0.292038 0.0462048 0.000530889 0.662642 -4.45911 -0.259742 -0.601557 1.69744 8.08251 -0.995828 1.50537 -2.40274 1.66028 -31.5833 -3.43599 12.6186 -80.5722 -40.1303 -40.6666 -175.004 54.5062 177.05 9.82886 8.87048 -7.81383 30.8727 -0.438739 -5.27963 56.2434 -22.7602 25.664 16.7258 70.5069 -3.95532 -2.28555 9.82606 -0.0193395 -3.91242 -5.79135 -1.43086 2.29914 14.436 9.86127 1.29547 -21.9556 0.287274 -1.32715e-009 8.75175e-006 -1.46528e-008 
-111.72 111.656 106.414 -1.06326 1.06721 86.7614 2.39392 -1.03368 1.14563 -1.6541 8.69844 -11.4413 -0.351323 -19.3579 -0.292006 0.0462048 0.000530889 0.662642 -4.51984 -0.368596 -0.579007 1.75991 8.19975 -0.981148 1.58815 -2.41174 1.64671 -31.5667 -3.44016 12.6336 -80.7612 -40.2575 -40.6827 -174.962 54.3065 177.218 9.71746 8.88782 -7.75386 30.8434 -0.460368 -5.33963 56.2366 -22.7812 25.5487 16.2242 70.4513 -3.40777 -2.07298 9.83529 -0.0500004 -3.89991 -5.91121 -1.44065 2.28855 14.4557 9.90672 1.29178 -21.9556 0.287274 -1.32715e-009 8.75175e-006 -1.46528e-008 
-111.735 111.656 106.383 -1.1189 1.04563 86.7306 2.4003 -1.12095 1.16773 -1.65555 8.7285 -11.4267 -0.327874 -19.3567 -0.292004 0.0462048 0.000530889 0.662642 -4.5621 -0.343894 -0.56175 1.79444 8.14898 -0.970442 1.74695 -2.29349 1.64779 -31.5982 -3.45492 12.665 -80.7306 -40.3637 -40.6347 -174.953 54.1792 177.289 9.72355 8.90161 -7.5651 30.8183 -0.472579 -5.37397 56.2038 -22.8707 25.3952 15.7882 70.4661 -2.95954 -1.77887 9.84812 0.0332361 -3.89791 -5.99957 -1.45209 2.29654 14.4951 9.9409 1.3097 -21.9624 0.289047 -1.32715e-009 8.75175e-006 -1.46528e-008 
-111.751 111.656 106.346 -1.13595 1.02325 86.6987 2.41404 -1.17676 1.19671 -1.66979 8.77257 -11.4441 -0.338717 -19.3688 -0.292025 0.0462048 0.000530889 0.662642 -4.56567 -0.229301 -0.567812 1.7883 8.01071 -0.978413 1.87899 -2.10431 1.69855 -31.6993 -3.50947 12.7844 -80.6565 -40.5045 -40.6538 -174.952 53.9044 177.404 9.98443 8.88123 -7.4492 30.8478 -0.464584 -5.35084 56.2387 -23.0619 25.3768 16.1471 70.6171 -3.46594 -1.71771 9.85169 0.155442 -3.89892 -6.0507 -1.45014 2.29954 14.5458 9.97292 1.35127 -21.9915 0.294603 -1.32715e-009 8.75175e-006 -1.46528e-008 
-111.769 111.655 106.311 -1.15014 0.996814 86.6505 2.44387 -1.23369 1.24854 -1.70244 8.82728 -11.4584 -0.373109 -19.3725 -0.292032 0.0462048 0.000530889 0.662642 -4.53057 -0.174312 -0.573605 1.74999 7.96029 -0.978294 1.95343 -1.97083 1.77116 -31.7622 -3.55184 12.8806 -80.6802 -40.6736 -40.6964 -174.932 53.5811 177.568 10.2405 8.84981 -7.48639 30.9122 -0.456495 -5.32576 56.2684 -23.1786 25.4623 16.7673 70.7418 -4.23255 -1.8242 9.85235 0.206389 -3.88534 -6.09223 -1.42881 2.28829 14.5846 10.0054 1.37153 -22.0265 0.298358 -1.32715e-009 8.75175e-006 -1.46528e-008 
-111.794 111.652 106.282 -1.18342 0.965624 86.5919 2.48324 -1.32569 1.31863 -1.73998 8.91088 -11.4532 -0.399961 -19.3731 -0.292507 0.0462048 0.000530889 0.662642 -4.48974 -0.195707 -0.56104 1.7053 8.00145 -0.956205 2.02222 -1.90191 1.82419 -31.7263 -3.53399 12.8423 -80.7191 -40.8287 -40.6486 -174.901 53.4489 177.67 10.2552 8.83827 -7.57639 30.9541 -0.461158 -5.33632 56.2136 -23.1358 25.4766 16.7185 70.6769 -4.14763 -1.84011 9.85132 0.185514 -3.86235 -6.16153 -1.40809 2.28126 14.6325 10.0415 1.37298 -22.0442 0.300393 -1.32715e-009 8.75175e-006 -1.46528e-008 
-111.832 111.646 106.251 -1.21473 0.944106 86.555 2.49825 -1.45539 1.36401 -1.75711 9.05973 -11.4429 -0.403875 -19.4089 -0.2947 0.0462048 0.000530889 0.662642 -4.47567 -0.153673 -0.559299 1.67217 7.97903 -0.948946 2.10498 -1.82065 1.85752 -31.6856 -3.4995 12.7615 -80.6992 -40.974 -40.5731 -174.873 53.4545 177.717 10.18 8.83485 -7.61527 30.9581 -0.459187 -5.3308 56.1755 -23.0762 25.412 16.216 70.5344 -3.55073 -1.78131 9.84863 0.190349 -3.86765 -6.2594 -1.42571 2.29994 14.7241 10.0836 1.39704 -22.0567 0.301678 -1.32715e-009 8.75175e-006 -1.46528e-008 
